<?xml version="1.0" encoding="UTF-8" standalone="no"?>
<!DOCTYPE svg PUBLIC "-//W3C//DTD SVG 1.1//EN"
 "http://www.w3.org/Graphics/SVG/1.1/DTD/svg11.dtd">
<!-- Generated by graphviz version 2.40.1 (20161225.0304)
 -->
<!-- Title: dependencies Pages: 1 -->
<svg width="678pt" height="211pt"
 viewBox="0.00 0.00 678.00 211.00" xmlns="http://www.w3.org/2000/svg" xmlns:xlink="http://www.w3.org/1999/xlink">
<g id="graph0" class="graph" transform="scale(1 1) rotate(0) translate(4 207)">
<title>dependencies</title>
<polygon fill="#ffffff" stroke="transparent" points="-4,4 -4,-207 674,-207 674,4 -4,4"/>
<text text-anchor="start" x="314.0091" y="-42.4" font-family="sans-serif" font-weight="bold" font-size="14.00" fill="#000000">Legend</text>
<polygon fill="#ffffb3" stroke="transparent" points="101,-10 101,-30 121,-30 121,-10 101,-10"/>
<text text-anchor="start" x="124.629" y="-15.4" font-family="sans-serif" font-size="14.00" fill="#000000"> &#160;Declarations</text>
<polygon fill="#8dd3c7" stroke="transparent" points="214,-10 214,-30 234,-30 234,-10 214,-10"/>
<text text-anchor="start" x="237.7251" y="-15.4" font-family="sans-serif" font-size="14.00" fill="#000000"> &#160;Module</text>
<polygon fill="#80b1d3" stroke="transparent" points="300,-10 300,-30 320,-30 320,-10 300,-10"/>
<text text-anchor="start" x="323.7812" y="-15.4" font-family="sans-serif" font-size="14.00" fill="#000000"> &#160;Bootstrap</text>
<polygon fill="#fdb462" stroke="transparent" points="397,-10 397,-30 417,-30 417,-10 397,-10"/>
<text text-anchor="start" x="420.6732" y="-15.4" font-family="sans-serif" font-size="14.00" fill="#000000"> &#160;Providers</text>
<polygon fill="#fb8072" stroke="transparent" points="493,-10 493,-30 513,-30 513,-10 493,-10"/>
<text text-anchor="start" x="516.7258" y="-15.4" font-family="sans-serif" font-size="14.00" fill="#000000"> &#160;Exports</text>
<g id="clust1" class="cluster">
<title>cluster_CoreModule</title>
<polygon fill="none" stroke="#000000" stroke-dasharray="1,5" points="8,-70 8,-195 662,-195 662,-70 8,-70"/>
</g>
<g id="clust6" class="cluster">
<title>cluster_CoreModule_providers</title>
<polygon fill="none" stroke="#000000" points="16,-78 16,-130 654,-130 654,-78 16,-78"/>
</g>
<!-- ApiService -->
<g id="node1" class="node">
<title>ApiService</title>
<ellipse fill="#fdb462" stroke="#000000" cx="592" cy="-104" rx="54.4508" ry="18"/>
<text text-anchor="middle" x="592" y="-99.8" font-family="Times,serif" font-size="14.00" fill="#000000">ApiService</text>
</g>
<!-- CoreModule -->
<g id="node5" class="node">
<title>CoreModule</title>
<polygon fill="#8dd3c7" stroke="#000000" points="392.2619,-187 389.2619,-191 368.2619,-191 365.2619,-187 305.7381,-187 305.7381,-151 392.2619,-151 392.2619,-187"/>
<text text-anchor="middle" x="349" y="-164.8" font-family="Times,serif" font-size="14.00" fill="#000000">CoreModule</text>
</g>
<!-- ApiService&#45;&gt;CoreModule -->
<g id="edge1" class="edge">
<title>ApiService&#45;&gt;CoreModule</title>
<path fill="none" stroke="#000000" d="M592,-122.1061C592,-141.3391 592,-169 592,-169 592,-169 402.4435,-169 402.4435,-169"/>
<polygon fill="#000000" stroke="#000000" points="402.4436,-165.5001 392.4435,-169 402.4435,-172.5001 402.4436,-165.5001"/>
</g>
<!-- LanguageService -->
<g id="node2" class="node">
<title>LanguageService</title>
<ellipse fill="#fdb462" stroke="#000000" cx="441" cy="-104" rx="78.1308" ry="18"/>
<text text-anchor="middle" x="441" y="-99.8" font-family="Times,serif" font-size="14.00" fill="#000000">LanguageService</text>
</g>
<!-- LanguageService&#45;&gt;CoreModule -->
<g id="edge2" class="edge">
<title>LanguageService&#45;&gt;CoreModule</title>
<path fill="none" stroke="#000000" d="M377.6577,-114.7334C377.6577,-114.7334 377.6577,-140.8723 377.6577,-140.8723"/>
<polygon fill="#000000" stroke="#000000" points="374.1578,-140.8722 377.6577,-150.8723 381.1578,-140.8723 374.1578,-140.8722"/>
</g>
<!-- NotificationService -->
<g id="node3" class="node">
<title>NotificationService</title>
<ellipse fill="#fdb462" stroke="#000000" cx="258" cy="-104" rx="86.8107" ry="18"/>
<text text-anchor="middle" x="258" y="-99.8" font-family="Times,serif" font-size="14.00" fill="#000000">NotificationService</text>
</g>
<!-- NotificationService&#45;&gt;CoreModule -->
<g id="edge3" class="edge">
<title>NotificationService&#45;&gt;CoreModule</title>
<path fill="none" stroke="#000000" d="M325.1372,-115.6207C325.1372,-115.6207 325.1372,-140.8534 325.1372,-140.8534"/>
<polygon fill="#000000" stroke="#000000" points="321.6373,-140.8533 325.1372,-150.8534 328.6373,-140.8534 321.6373,-140.8533"/>
</g>
<!-- PolicyService -->
<g id="node4" class="node">
<title>PolicyService</title>
<ellipse fill="#fdb462" stroke="#000000" cx="89" cy="-104" rx="64.8428" ry="18"/>
<text text-anchor="middle" x="89" y="-99.8" font-family="Times,serif" font-size="14.00" fill="#000000">PolicyService</text>
</g>
<!-- PolicyService&#45;&gt;CoreModule -->
<g id="edge4" class="edge">
<title>PolicyService&#45;&gt;CoreModule</title>
<path fill="none" stroke="#000000" d="M89,-122.1061C89,-141.3391 89,-169 89,-169 89,-169 295.4818,-169 295.4818,-169"/>
<polygon fill="#000000" stroke="#000000" points="295.4819,-172.5001 305.4818,-169 295.4818,-165.5001 295.4819,-172.5001"/>
</g>
</g>
</svg>
