<?xml version="1.0" encoding="UTF-8" standalone="no"?>
<!DOCTYPE svg PUBLIC "-//W3C//DTD SVG 1.1//EN"
 "http://www.w3.org/Graphics/SVG/1.1/DTD/svg11.dtd">
<!-- Generated by graphviz version 2.40.1 (20161225.0304)
 -->
<!-- Title: dependencies Pages: 1 -->
<svg width="3540pt" height="366pt"
 viewBox="0.00 0.00 3540.00 366.00" xmlns="http://www.w3.org/2000/svg" xmlns:xlink="http://www.w3.org/1999/xlink">
<g id="graph0" class="graph" transform="scale(1 1) rotate(0) translate(4 362)">
<title>dependencies</title>
<polygon fill="#ffffff" stroke="transparent" points="-4,4 -4,-362 3536,-362 3536,4 -4,4"/>
<text text-anchor="start" x="1745.0091" y="-42.4" font-family="sans-serif" font-weight="bold" font-size="14.00" fill="#000000">Legend</text>
<polygon fill="#ffffb3" stroke="transparent" points="1532,-10 1532,-30 1552,-30 1552,-10 1532,-10"/>
<text text-anchor="start" x="1555.629" y="-15.4" font-family="sans-serif" font-size="14.00" fill="#000000"> &#160;Declarations</text>
<polygon fill="#8dd3c7" stroke="transparent" points="1645,-10 1645,-30 1665,-30 1665,-10 1645,-10"/>
<text text-anchor="start" x="1668.7251" y="-15.4" font-family="sans-serif" font-size="14.00" fill="#000000"> &#160;Module</text>
<polygon fill="#80b1d3" stroke="transparent" points="1731,-10 1731,-30 1751,-30 1751,-10 1731,-10"/>
<text text-anchor="start" x="1754.7812" y="-15.4" font-family="sans-serif" font-size="14.00" fill="#000000"> &#160;Bootstrap</text>
<polygon fill="#fdb462" stroke="transparent" points="1828,-10 1828,-30 1848,-30 1848,-10 1828,-10"/>
<text text-anchor="start" x="1851.6732" y="-15.4" font-family="sans-serif" font-size="14.00" fill="#000000"> &#160;Providers</text>
<polygon fill="#fb8072" stroke="transparent" points="1924,-10 1924,-30 1944,-30 1944,-10 1924,-10"/>
<text text-anchor="start" x="1947.7258" y="-15.4" font-family="sans-serif" font-size="14.00" fill="#000000"> &#160;Exports</text>
<g id="clust1" class="cluster">
<title>cluster_AppModule</title>
<polygon fill="none" stroke="#000000" stroke-dasharray="1,5" points="8,-146 8,-350 3064,-350 3064,-146 8,-146"/>
</g>
<g id="clust2" class="cluster">
<title>cluster_AppModule_declarations</title>
<polygon fill="none" stroke="#000000" points="16,-154 16,-206 2682,-206 2682,-154 16,-154"/>
</g>
<g id="clust21" class="cluster">
<title>cluster_AppModule_imports</title>
<polygon fill="none" stroke="#000000" points="2690,-154 2690,-206 3056,-206 3056,-154 2690,-154"/>
</g>
<g id="clust23" class="cluster">
<title>cluster_AppModule_bootstrap</title>
<polygon fill="none" stroke="#000000" points="1530,-290 1530,-342 1654,-342 1654,-290 1530,-290"/>
</g>
<g id="clust31" class="cluster">
<title>cluster_CoreModule</title>
<polygon fill="none" stroke="#000000" stroke-dasharray="1,5" points="2399,-70 2399,-138 3053,-138 3053,-70 2399,-70"/>
</g>
<g id="clust36" class="cluster">
<title>cluster_CoreModule_providers</title>
<polygon fill="none" stroke="#000000" points="2407,-78 2407,-130 3045,-130 3045,-78 2407,-78"/>
</g>
<g id="clust37" class="cluster">
<title>cluster_SharedModule</title>
<polygon fill="none" stroke="#000000" stroke-dasharray="1,5" points="3072,-214 3072,-282 3524,-282 3524,-214 3072,-214"/>
</g>
<g id="clust38" class="cluster">
<title>cluster_SharedModule_declarations</title>
<polygon fill="none" stroke="#000000" points="3304,-222 3304,-274 3516,-274 3516,-222 3304,-222"/>
</g>
<g id="clust41" class="cluster">
<title>cluster_SharedModule_exports</title>
<polygon fill="none" stroke="#000000" points="3080,-222 3080,-274 3296,-274 3296,-222 3080,-222"/>
</g>
<!-- AppComponent -->
<g id="node1" class="node">
<title>AppComponent</title>
<polygon fill="#ffffb3" stroke="#000000" points="2673.9399,-198 2568.0601,-198 2568.0601,-162 2673.9399,-162 2673.9399,-198"/>
<text text-anchor="middle" x="2621" y="-175.8" font-family="Times,serif" font-size="14.00" fill="#000000">AppComponent</text>
</g>
<!-- AppModule -->
<g id="node19" class="node">
<title>AppModule</title>
<polygon fill="#8dd3c7" stroke="#000000" points="1633.6571,-266 1630.6571,-270 1609.6571,-270 1606.6571,-266 1550.3429,-266 1550.3429,-230 1633.6571,-230 1633.6571,-266"/>
<text text-anchor="middle" x="1592" y="-243.8" font-family="Times,serif" font-size="14.00" fill="#000000">AppModule</text>
</g>
<!-- AppComponent&#45;&gt;AppModule -->
<g id="edge1" class="edge">
<title>AppComponent&#45;&gt;AppModule</title>
<path fill="none" stroke="#000000" d="M2621,-198.2921C2621,-220.2057 2621,-254 2621,-254 2621,-254 1643.9339,-254 1643.9339,-254"/>
<polygon fill="#000000" stroke="#000000" points="1643.9339,-250.5001 1633.9339,-254 1643.9338,-257.5001 1643.9339,-250.5001"/>
</g>
<!-- ApproveComponent -->
<g id="node2" class="node">
<title>ApproveComponent</title>
<polygon fill="#ffffb3" stroke="#000000" points="2550.3146,-198 2419.6854,-198 2419.6854,-162 2550.3146,-162 2550.3146,-198"/>
<text text-anchor="middle" x="2485" y="-175.8" font-family="Times,serif" font-size="14.00" fill="#000000">ApproveComponent</text>
</g>
<!-- ApproveComponent&#45;&gt;AppModule -->
<g id="edge2" class="edge">
<title>ApproveComponent&#45;&gt;AppModule</title>
<path fill="none" stroke="#000000" d="M2485,-198.2843C2485,-219.3211 2485,-251 2485,-251 2485,-251 1643.8735,-251 1643.8735,-251"/>
<polygon fill="#000000" stroke="#000000" points="1643.8735,-247.5001 1633.8735,-251 1643.8735,-254.5001 1643.8735,-247.5001"/>
</g>
<!-- ClientsComponent -->
<g id="node3" class="node">
<title>ClientsComponent</title>
<polygon fill="#ffffb3" stroke="#000000" points="2401.5,-198 2280.5,-198 2280.5,-162 2401.5,-162 2401.5,-198"/>
<text text-anchor="middle" x="2341" y="-175.8" font-family="Times,serif" font-size="14.00" fill="#000000">ClientsComponent</text>
</g>
<!-- ClientsComponent&#45;&gt;AppModule -->
<g id="edge3" class="edge">
<title>ClientsComponent&#45;&gt;AppModule</title>
<path fill="none" stroke="#000000" d="M2341,-198.2228C2341,-218.3652 2341,-248 2341,-248 2341,-248 1643.8744,-248 1643.8744,-248"/>
<polygon fill="#000000" stroke="#000000" points="1643.8745,-244.5001 1633.8744,-248 1643.8744,-251.5001 1643.8745,-244.5001"/>
</g>
<!-- ConfirmComponent -->
<g id="node4" class="node">
<title>ConfirmComponent</title>
<polygon fill="#ffffb3" stroke="#000000" points="2262.2716,-198 2133.7284,-198 2133.7284,-162 2262.2716,-162 2262.2716,-198"/>
<text text-anchor="middle" x="2198" y="-175.8" font-family="Times,serif" font-size="14.00" fill="#000000">ConfirmComponent</text>
</g>
<!-- ConfirmComponent&#45;&gt;AppModule -->
<g id="edge4" class="edge">
<title>ConfirmComponent&#45;&gt;AppModule</title>
<path fill="none" stroke="#000000" d="M2198,-198.1061C2198,-217.3391 2198,-245 2198,-245 2198,-245 1644.1316,-245 1644.1316,-245"/>
<polygon fill="#000000" stroke="#000000" points="1644.1316,-241.5001 1634.1316,-245 1644.1316,-248.5001 1644.1316,-241.5001"/>
</g>
<!-- ContactUsComponent -->
<g id="node5" class="node">
<title>ContactUsComponent</title>
<polygon fill="#ffffb3" stroke="#000000" points="2115.4313,-198 1974.5687,-198 1974.5687,-162 2115.4313,-162 2115.4313,-198"/>
<text text-anchor="middle" x="2045" y="-175.8" font-family="Times,serif" font-size="14.00" fill="#000000">ContactUsComponent</text>
</g>
<!-- ContactUsComponent&#45;&gt;AppModule -->
<g id="edge5" class="edge">
<title>ContactUsComponent&#45;&gt;AppModule</title>
<path fill="none" stroke="#000000" d="M2045,-198.2667C2045,-216.5552 2045,-242 2045,-242 2045,-242 1643.8052,-242 1643.8052,-242"/>
<polygon fill="#000000" stroke="#000000" points="1643.8052,-238.5001 1633.8052,-242 1643.8051,-245.5001 1643.8052,-238.5001"/>
</g>
<!-- DashboardComponent -->
<g id="node6" class="node">
<title>DashboardComponent</title>
<polygon fill="#ffffb3" stroke="#000000" points="1956.9734,-198 1815.0266,-198 1815.0266,-162 1956.9734,-162 1956.9734,-198"/>
<text text-anchor="middle" x="1886" y="-175.8" font-family="Times,serif" font-size="14.00" fill="#000000">DashboardComponent</text>
</g>
<!-- DashboardComponent&#45;&gt;AppModule -->
<g id="edge6" class="edge">
<title>DashboardComponent&#45;&gt;AppModule</title>
<path fill="none" stroke="#000000" d="M1886,-198.0225C1886,-215.3734 1886,-239 1886,-239 1886,-239 1643.8108,-239 1643.8108,-239"/>
<polygon fill="#000000" stroke="#000000" points="1643.8108,-235.5001 1633.8108,-239 1643.8108,-242.5001 1643.8108,-235.5001"/>
</g>
<!-- FinanceComponent -->
<g id="node7" class="node">
<title>FinanceComponent</title>
<polygon fill="#ffffb3" stroke="#000000" points="1796.6499,-198 1671.3501,-198 1671.3501,-162 1796.6499,-162 1796.6499,-198"/>
<text text-anchor="middle" x="1734" y="-175.8" font-family="Times,serif" font-size="14.00" fill="#000000">FinanceComponent</text>
</g>
<!-- FinanceComponent&#45;&gt;AppModule -->
<g id="edge7" class="edge">
<title>FinanceComponent&#45;&gt;AppModule</title>
<path fill="none" stroke="#000000" d="M1734,-198.027C1734,-214.3976 1734,-236 1734,-236 1734,-236 1643.8367,-236 1643.8367,-236"/>
<polygon fill="#000000" stroke="#000000" points="1643.8367,-232.5001 1633.8367,-236 1643.8366,-239.5001 1643.8367,-232.5001"/>
</g>
<!-- HeaderComponent -->
<g id="node8" class="node">
<title>HeaderComponent</title>
<polygon fill="#ffffb3" stroke="#000000" points="1652.7437,-198 1531.2563,-198 1531.2563,-162 1652.7437,-162 1652.7437,-198"/>
<text text-anchor="middle" x="1592" y="-175.8" font-family="Times,serif" font-size="14.00" fill="#000000">HeaderComponent</text>
</g>
<!-- HeaderComponent&#45;&gt;AppModule -->
<g id="edge8" class="edge">
<title>HeaderComponent&#45;&gt;AppModule</title>
<path fill="none" stroke="#000000" d="M1592,-198.2228C1592,-198.2228 1592,-219.7269 1592,-219.7269"/>
<polygon fill="#000000" stroke="#000000" points="1588.5001,-219.7269 1592,-229.7269 1595.5001,-219.727 1588.5001,-219.7269"/>
</g>
<!-- LogsComponent -->
<g id="node9" class="node">
<title>LogsComponent</title>
<polygon fill="#ffffb3" stroke="#000000" points="1512.8301,-198 1403.1699,-198 1403.1699,-162 1512.8301,-162 1512.8301,-198"/>
<text text-anchor="middle" x="1458" y="-175.8" font-family="Times,serif" font-size="14.00" fill="#000000">LogsComponent</text>
</g>
<!-- LogsComponent&#45;&gt;AppModule -->
<g id="edge9" class="edge">
<title>LogsComponent&#45;&gt;AppModule</title>
<path fill="none" stroke="#000000" d="M1458,-198.2819C1458,-213.9478 1458,-234 1458,-234 1458,-234 1540.3361,-234 1540.3361,-234"/>
<polygon fill="#000000" stroke="#000000" points="1540.3361,-237.5001 1550.3361,-234 1540.3361,-230.5001 1540.3361,-237.5001"/>
</g>
<!-- NajmComponent -->
<g id="node10" class="node">
<title>NajmComponent</title>
<polygon fill="#ffffb3" stroke="#000000" points="1385.4356,-198 1272.5644,-198 1272.5644,-162 1385.4356,-162 1385.4356,-198"/>
<text text-anchor="middle" x="1329" y="-175.8" font-family="Times,serif" font-size="14.00" fill="#000000">NajmComponent</text>
</g>
<!-- NajmComponent&#45;&gt;AppModule -->
<g id="edge10" class="edge">
<title>NajmComponent&#45;&gt;AppModule</title>
<path fill="none" stroke="#000000" d="M1329,-198.0352C1329,-214.7344 1329,-237 1329,-237 1329,-237 1540.3269,-237 1540.3269,-237"/>
<polygon fill="#000000" stroke="#000000" points="1540.3269,-240.5001 1550.3269,-237 1540.3268,-233.5001 1540.3269,-240.5001"/>
</g>
<!-- NavbarComponent -->
<g id="node11" class="node">
<title>NavbarComponent</title>
<polygon fill="#ffffb3" stroke="#000000" points="1255.0297,-198 1132.9703,-198 1132.9703,-162 1255.0297,-162 1255.0297,-198"/>
<text text-anchor="middle" x="1194" y="-175.8" font-family="Times,serif" font-size="14.00" fill="#000000">NavbarComponent</text>
</g>
<!-- NavbarComponent&#45;&gt;AppModule -->
<g id="edge11" class="edge">
<title>NavbarComponent&#45;&gt;AppModule</title>
<path fill="none" stroke="#000000" d="M1194,-198.002C1194,-215.6754 1194,-240 1194,-240 1194,-240 1540.1593,-240 1540.1593,-240"/>
<polygon fill="#000000" stroke="#000000" points="1540.1593,-243.5001 1550.1593,-240 1540.1592,-236.5001 1540.1593,-243.5001"/>
</g>
<!-- NotificationsComponent -->
<g id="node12" class="node">
<title>NotificationsComponent</title>
<polygon fill="#ffffb3" stroke="#000000" points="1115.427,-198 960.573,-198 960.573,-162 1115.427,-162 1115.427,-198"/>
<text text-anchor="middle" x="1038" y="-175.8" font-family="Times,serif" font-size="14.00" fill="#000000">NotificationsComponent</text>
</g>
<!-- NotificationsComponent&#45;&gt;AppModule -->
<g id="edge12" class="edge">
<title>NotificationsComponent&#45;&gt;AppModule</title>
<path fill="none" stroke="#000000" d="M1038,-198.1686C1038,-217.0898 1038,-244 1038,-244 1038,-244 1539.9052,-244 1539.9052,-244"/>
<polygon fill="#000000" stroke="#000000" points="1539.9053,-247.5001 1549.9052,-244 1539.9052,-240.5001 1539.9053,-247.5001"/>
</g>
<!-- PaymentComponent -->
<g id="node13" class="node">
<title>PaymentComponent</title>
<polygon fill="#ffffb3" stroke="#000000" points="943.3258,-198 812.6742,-198 812.6742,-162 943.3258,-162 943.3258,-198"/>
<text text-anchor="middle" x="878" y="-175.8" font-family="Times,serif" font-size="14.00" fill="#000000">PaymentComponent</text>
</g>
<!-- PaymentComponent&#45;&gt;AppModule -->
<g id="edge13" class="edge">
<title>PaymentComponent&#45;&gt;AppModule</title>
<path fill="none" stroke="#000000" d="M878,-198.308C878,-218.1455 878,-247 878,-247 878,-247 1540.2643,-247 1540.2643,-247"/>
<polygon fill="#000000" stroke="#000000" points="1540.2643,-250.5001 1550.2643,-247 1540.2642,-243.5001 1540.2643,-250.5001"/>
</g>
<!-- ProfileComponent -->
<g id="node14" class="node">
<title>ProfileComponent</title>
<polygon fill="#ffffb3" stroke="#000000" points="794.9328,-198 675.0672,-198 675.0672,-162 794.9328,-162 794.9328,-198"/>
<text text-anchor="middle" x="735" y="-175.8" font-family="Times,serif" font-size="14.00" fill="#000000">ProfileComponent</text>
</g>
<!-- ProfileComponent&#45;&gt;AppModule -->
<g id="edge14" class="edge">
<title>ProfileComponent&#45;&gt;AppModule</title>
<path fill="none" stroke="#000000" d="M735,-198.0267C735,-218.7672 735,-250 735,-250 735,-250 1540.085,-250 1540.085,-250"/>
<polygon fill="#000000" stroke="#000000" points="1540.085,-253.5001 1550.085,-250 1540.0849,-246.5001 1540.085,-253.5001"/>
</g>
<!-- RejectComponent -->
<g id="node15" class="node">
<title>RejectComponent</title>
<polygon fill="#ffffb3" stroke="#000000" points="657.594,-198 540.406,-198 540.406,-162 657.594,-162 657.594,-198"/>
<text text-anchor="middle" x="599" y="-175.8" font-family="Times,serif" font-size="14.00" fill="#000000">RejectComponent</text>
</g>
<!-- RejectComponent&#45;&gt;AppModule -->
<g id="edge15" class="edge">
<title>RejectComponent&#45;&gt;AppModule</title>
<path fill="none" stroke="#000000" d="M599,-198.0449C599,-219.6623 599,-253 599,-253 599,-253 1540.2818,-253 1540.2818,-253"/>
<polygon fill="#000000" stroke="#000000" points="1540.2818,-256.5001 1550.2818,-253 1540.2818,-249.5001 1540.2818,-256.5001"/>
</g>
<!-- ReportsComponent -->
<g id="node16" class="node">
<title>ReportsComponent</title>
<polygon fill="#ffffb3" stroke="#000000" points="522.3795,-198 397.6205,-198 397.6205,-162 522.3795,-162 522.3795,-198"/>
<text text-anchor="middle" x="460" y="-175.8" font-family="Times,serif" font-size="14.00" fill="#000000">ReportsComponent</text>
</g>
<!-- ReportsComponent&#45;&gt;AppModule -->
<g id="edge16" class="edge">
<title>ReportsComponent&#45;&gt;AppModule</title>
<path fill="none" stroke="#000000" d="M460,-198.2479C460,-221.0179 460,-257 460,-257 460,-257 1540.0303,-257 1540.0303,-257"/>
<polygon fill="#000000" stroke="#000000" points="1540.0303,-260.5001 1550.0303,-257 1540.0302,-253.5001 1540.0303,-260.5001"/>
</g>
<!-- RequestCounterComponent -->
<g id="node17" class="node">
<title>RequestCounterComponent</title>
<polygon fill="#ffffb3" stroke="#000000" points="379.5364,-198 208.4636,-198 208.4636,-162 379.5364,-162 379.5364,-198"/>
<text text-anchor="middle" x="294" y="-175.8" font-family="Times,serif" font-size="14.00" fill="#000000">RequestCounterComponent</text>
</g>
<!-- RequestCounterComponent&#45;&gt;AppModule -->
<g id="edge17" class="edge">
<title>RequestCounterComponent&#45;&gt;AppModule</title>
<path fill="none" stroke="#000000" d="M294,-198.1532C294,-221.7566 294,-260 294,-260 294,-260 1540.2833,-260 1540.2833,-260"/>
<polygon fill="#000000" stroke="#000000" points="1540.2834,-263.5001 1550.2833,-260 1540.2833,-256.5001 1540.2834,-263.5001"/>
</g>
<!-- UpdateRequestComponent -->
<g id="node18" class="node">
<title>UpdateRequestComponent</title>
<polygon fill="#ffffb3" stroke="#000000" points="190.3599,-198 23.6401,-198 23.6401,-162 190.3599,-162 190.3599,-198"/>
<text text-anchor="middle" x="107" y="-175.8" font-family="Times,serif" font-size="14.00" fill="#000000">UpdateRequestComponent</text>
</g>
<!-- UpdateRequestComponent&#45;&gt;AppModule -->
<g id="edge18" class="edge">
<title>UpdateRequestComponent&#45;&gt;AppModule</title>
<path fill="none" stroke="#000000" d="M107,-198.0098C107,-222.4207 107,-263 107,-263 107,-263 1540.3417,-263 1540.3417,-263"/>
<polygon fill="#000000" stroke="#000000" points="1540.3417,-266.5001 1550.3417,-263 1540.3416,-259.5001 1540.3417,-266.5001"/>
</g>
<!-- AppComponent  -->
<g id="node23" class="node">
<title>AppComponent </title>
<polygon fill="#80b1d3" stroke="#000000" points="1646.439,-334 1537.561,-334 1537.561,-298 1646.439,-298 1646.439,-334"/>
<text text-anchor="middle" x="1592" y="-311.8" font-family="Times,serif" font-size="14.00" fill="#000000">AppComponent </text>
</g>
<!-- AppModule&#45;&gt;AppComponent  -->
<g id="edge22" class="edge">
<title>AppModule&#45;&gt;AppComponent </title>
<path fill="none" stroke="#000000" stroke-dasharray="1,5" d="M1592,-266.2228C1592,-266.2228 1592,-287.7269 1592,-287.7269"/>
<polygon fill="#000000" stroke="#000000" points="1588.5001,-287.7269 1592,-297.7269 1595.5001,-287.727 1588.5001,-287.7269"/>
</g>
<!-- AppRoutingModule -->
<g id="node20" class="node">
<title>AppRoutingModule</title>
<polygon fill="#8dd3c7" stroke="#000000" points="2931.2744,-198 2928.2744,-202 2907.2744,-202 2904.2744,-198 2802.7256,-198 2802.7256,-162 2931.2744,-162 2931.2744,-198"/>
<text text-anchor="middle" x="2867" y="-175.8" font-family="Times,serif" font-size="14.00" fill="#000000">AppRoutingModule</text>
</g>
<!-- AppRoutingModule&#45;&gt;AppModule -->
<g id="edge19" class="edge">
<title>AppRoutingModule&#45;&gt;AppModule</title>
<path fill="none" stroke="#000000" d="M2867,-198.1532C2867,-221.7566 2867,-260 2867,-260 2867,-260 1643.6966,-260 1643.6966,-260"/>
<polygon fill="#000000" stroke="#000000" points="1643.6967,-256.5001 1633.6966,-260 1643.6966,-263.5001 1643.6967,-256.5001"/>
</g>
<!-- CoreModule -->
<g id="node21" class="node">
<title>CoreModule</title>
<polygon fill="#8dd3c7" stroke="#000000" points="2784.2619,-198 2781.2619,-202 2760.2619,-202 2757.2619,-198 2697.7381,-198 2697.7381,-162 2784.2619,-162 2784.2619,-198"/>
<text text-anchor="middle" x="2741" y="-175.8" font-family="Times,serif" font-size="14.00" fill="#000000">CoreModule</text>
</g>
<!-- CoreModule&#45;&gt;AppModule -->
<g id="edge20" class="edge">
<title>CoreModule&#45;&gt;AppModule</title>
<path fill="none" stroke="#000000" d="M2741,-198.2479C2741,-221.0179 2741,-257 2741,-257 2741,-257 1643.9136,-257 1643.9136,-257"/>
<polygon fill="#000000" stroke="#000000" points="1643.9137,-253.5001 1633.9136,-257 1643.9136,-260.5001 1643.9137,-253.5001"/>
</g>
<!-- SharedModule -->
<g id="node22" class="node">
<title>SharedModule</title>
<polygon fill="#8dd3c7" stroke="#000000" points="3048.4231,-198 3045.4231,-202 3024.4231,-202 3021.4231,-198 2949.5769,-198 2949.5769,-162 3048.4231,-162 3048.4231,-198"/>
<text text-anchor="middle" x="2999" y="-175.8" font-family="Times,serif" font-size="14.00" fill="#000000">SharedModule</text>
</g>
<!-- SharedModule&#45;&gt;AppModule -->
<g id="edge21" class="edge">
<title>SharedModule&#45;&gt;AppModule</title>
<path fill="none" stroke="#000000" d="M2982.5963,-198.0098C2982.5963,-222.4207 2982.5963,-263 2982.5963,-263 2982.5963,-263 1643.9966,-263 1643.9966,-263"/>
<polygon fill="#000000" stroke="#000000" points="1643.9967,-259.5001 1633.9966,-263 1643.9966,-266.5001 1643.9967,-259.5001"/>
</g>
<!-- PolicyUpdateRequestStatusPipe  -->
<g id="node29" class="node">
<title>PolicyUpdateRequestStatusPipe </title>
<polygon fill="#fb8072" stroke="#000000" points="3287.9166,-266 3088.0834,-266 3088.0834,-230 3287.9166,-230 3287.9166,-266"/>
<text text-anchor="middle" x="3188" y="-243.8" font-family="Times,serif" font-size="14.00" fill="#000000">PolicyUpdateRequestStatusPipe </text>
</g>
<!-- SharedModule&#45;&gt;PolicyUpdateRequestStatusPipe  -->
<g id="edge28" class="edge">
<title>SharedModule&#45;&gt;PolicyUpdateRequestStatusPipe </title>
<path fill="none" stroke="#000000" stroke-dasharray="5,2" d="M3015.4037,-198.2396C3015.4037,-213.5706 3015.4037,-233 3015.4037,-233 3015.4037,-233 3077.8499,-233 3077.8499,-233"/>
<polygon fill="#000000" stroke="#000000" points="3077.8499,-236.5001 3087.8499,-233 3077.8498,-229.5001 3077.8499,-236.5001"/>
</g>
<!-- ApiService -->
<g id="node24" class="node">
<title>ApiService</title>
<ellipse fill="#fdb462" stroke="#000000" cx="2983" cy="-104" rx="54.4508" ry="18"/>
<text text-anchor="middle" x="2983" y="-99.8" font-family="Times,serif" font-size="14.00" fill="#000000">ApiService</text>
</g>
<!-- ApiService&#45;&gt;CoreModule -->
<g id="edge23" class="edge">
<title>ApiService&#45;&gt;CoreModule</title>
<path fill="none" stroke="#000000" d="M2940.588,-115.3554C2940.588,-128.6863 2940.588,-149 2940.588,-149 2940.588,-149 2774.2321,-149 2774.2321,-149 2774.2321,-149 2774.2321,-151.9672 2774.2321,-151.9672"/>
<polygon fill="#000000" stroke="#000000" points="2770.7322,-151.9671 2774.2321,-161.9672 2777.7322,-151.9672 2770.7322,-151.9671"/>
</g>
<!-- LanguageService -->
<g id="node25" class="node">
<title>LanguageService</title>
<ellipse fill="#fdb462" stroke="#000000" cx="2832" cy="-104" rx="78.1308" ry="18"/>
<text text-anchor="middle" x="2832" y="-99.8" font-family="Times,serif" font-size="14.00" fill="#000000">LanguageService</text>
</g>
<!-- LanguageService&#45;&gt;CoreModule -->
<g id="edge24" class="edge">
<title>LanguageService&#45;&gt;CoreModule</title>
<path fill="none" stroke="#000000" d="M2764.0834,-113.0166C2764.0834,-113.0166 2764.0834,-151.7357 2764.0834,-151.7357"/>
<polygon fill="#000000" stroke="#000000" points="2760.5835,-151.7356 2764.0834,-161.7357 2767.5835,-151.7357 2760.5835,-151.7356"/>
</g>
<!-- NotificationService -->
<g id="node26" class="node">
<title>NotificationService</title>
<ellipse fill="#fdb462" stroke="#000000" cx="2649" cy="-104" rx="86.8107" ry="18"/>
<text text-anchor="middle" x="2649" y="-99.8" font-family="Times,serif" font-size="14.00" fill="#000000">NotificationService</text>
</g>
<!-- NotificationService&#45;&gt;CoreModule -->
<g id="edge25" class="edge">
<title>NotificationService&#45;&gt;CoreModule</title>
<path fill="none" stroke="#000000" d="M2722.9765,-113.6255C2722.9765,-113.6255 2722.9765,-151.7493 2722.9765,-151.7493"/>
<polygon fill="#000000" stroke="#000000" points="2719.4766,-151.7492 2722.9765,-161.7493 2726.4766,-151.7493 2719.4766,-151.7492"/>
</g>
<!-- PolicyService -->
<g id="node27" class="node">
<title>PolicyService</title>
<ellipse fill="#fdb462" stroke="#000000" cx="2480" cy="-104" rx="64.8428" ry="18"/>
<text text-anchor="middle" x="2480" y="-99.8" font-family="Times,serif" font-size="14.00" fill="#000000">PolicyService</text>
</g>
<!-- PolicyService&#45;&gt;CoreModule -->
<g id="edge26" class="edge">
<title>PolicyService&#45;&gt;CoreModule</title>
<path fill="none" stroke="#000000" d="M2482.257,-122.2434C2482.257,-129.4297 2482.257,-136 2482.257,-136 2482.257,-136 2710.2979,-136 2710.2979,-136 2710.2979,-136 2710.2979,-151.8495 2710.2979,-151.8495"/>
<polygon fill="#000000" stroke="#000000" points="2706.798,-151.8494 2710.2979,-161.8495 2713.798,-151.8495 2706.798,-151.8494"/>
</g>
<!-- PolicyUpdateRequestStatusPipe -->
<g id="node28" class="node">
<title>PolicyUpdateRequestStatusPipe</title>
<polygon fill="#ffffb3" stroke="#000000" points="3508.417,-266 3311.583,-266 3311.583,-230 3508.417,-230 3508.417,-266"/>
<text text-anchor="middle" x="3410" y="-243.8" font-family="Times,serif" font-size="14.00" fill="#000000">PolicyUpdateRequestStatusPipe</text>
</g>
<!-- PolicyUpdateRequestStatusPipe&#45;&gt;SharedModule -->
<g id="edge27" class="edge">
<title>PolicyUpdateRequestStatusPipe&#45;&gt;SharedModule</title>
<path fill="none" stroke="#000000" d="M3410,-229.7772C3410,-209.6348 3410,-180 3410,-180 3410,-180 3058.5762,-180 3058.5762,-180"/>
<polygon fill="#000000" stroke="#000000" points="3058.5762,-176.5001 3048.5762,-180 3058.5762,-183.5001 3058.5762,-176.5001"/>
</g>
</g>
</svg>
