<?xml version="1.0" encoding="UTF-8" standalone="no"?>
<!DOCTYPE svg PUBLIC "-//W3C//DTD SVG 1.1//EN"
 "http://www.w3.org/Graphics/SVG/1.1/DTD/svg11.dtd">
<!-- Generated by graphviz version 2.40.1 (20161225.0304)
 -->
<!-- Title: dependencies Pages: 1 -->
<svg width="3080pt" height="284pt"
 viewBox="0.00 0.00 3080.00 284.00" xmlns="http://www.w3.org/2000/svg" xmlns:xlink="http://www.w3.org/1999/xlink">
<g id="graph0" class="graph" transform="scale(1 1) rotate(0) translate(4 280)">
<title>dependencies</title>
<polygon fill="#ffffff" stroke="transparent" points="-4,4 -4,-280 3076,-280 3076,4 -4,4"/>
<text text-anchor="start" x="1515.0091" y="-42.4" font-family="sans-serif" font-weight="bold" font-size="14.00" fill="#000000">Legend</text>
<polygon fill="#ffffb3" stroke="transparent" points="1302,-10 1302,-30 1322,-30 1322,-10 1302,-10"/>
<text text-anchor="start" x="1325.629" y="-15.4" font-family="sans-serif" font-size="14.00" fill="#000000"> &#160;Declarations</text>
<polygon fill="#8dd3c7" stroke="transparent" points="1415,-10 1415,-30 1435,-30 1435,-10 1415,-10"/>
<text text-anchor="start" x="1438.7251" y="-15.4" font-family="sans-serif" font-size="14.00" fill="#000000"> &#160;Module</text>
<polygon fill="#80b1d3" stroke="transparent" points="1501,-10 1501,-30 1521,-30 1521,-10 1501,-10"/>
<text text-anchor="start" x="1524.7812" y="-15.4" font-family="sans-serif" font-size="14.00" fill="#000000"> &#160;Bootstrap</text>
<polygon fill="#fdb462" stroke="transparent" points="1598,-10 1598,-30 1618,-30 1618,-10 1598,-10"/>
<text text-anchor="start" x="1621.6732" y="-15.4" font-family="sans-serif" font-size="14.00" fill="#000000"> &#160;Providers</text>
<polygon fill="#fb8072" stroke="transparent" points="1694,-10 1694,-30 1714,-30 1714,-10 1694,-10"/>
<text text-anchor="start" x="1717.7258" y="-15.4" font-family="sans-serif" font-size="14.00" fill="#000000"> &#160;Exports</text>
<g id="clust1" class="cluster">
<title>cluster_AppModule</title>
<polygon fill="none" stroke="#000000" stroke-dasharray="1,5" points="8,-70 8,-268 3064,-268 3064,-70 8,-70"/>
</g>
<g id="clust2" class="cluster">
<title>cluster_AppModule_declarations</title>
<polygon fill="none" stroke="#000000" points="390,-78 390,-130 3056,-130 3056,-78 390,-78"/>
</g>
<g id="clust21" class="cluster">
<title>cluster_AppModule_imports</title>
<polygon fill="none" stroke="#000000" points="16,-78 16,-130 382,-130 382,-78 16,-78"/>
</g>
<g id="clust23" class="cluster">
<title>cluster_AppModule_bootstrap</title>
<polygon fill="none" stroke="#000000" points="1506,-208 1506,-260 1630,-260 1630,-208 1506,-208"/>
</g>
<!-- AppComponent -->
<g id="node1" class="node">
<title>AppComponent</title>
<polygon fill="#ffffb3" stroke="#000000" points="3047.9399,-122 2942.0601,-122 2942.0601,-86 3047.9399,-86 3047.9399,-122"/>
<text text-anchor="middle" x="2995" y="-99.8" font-family="Times,serif" font-size="14.00" fill="#000000">AppComponent</text>
</g>
<!-- AppModule -->
<g id="node19" class="node">
<title>AppModule</title>
<polygon fill="#8dd3c7" stroke="#000000" points="1609.6571,-187 1606.6571,-191 1585.6571,-191 1582.6571,-187 1526.3429,-187 1526.3429,-151 1609.6571,-151 1609.6571,-187"/>
<text text-anchor="middle" x="1568" y="-164.8" font-family="Times,serif" font-size="14.00" fill="#000000">AppModule</text>
</g>
<!-- AppComponent&#45;&gt;AppModule -->
<g id="edge1" class="edge">
<title>AppComponent&#45;&gt;AppModule</title>
<path fill="none" stroke="#000000" d="M2995,-122.1532C2995,-145.7566 2995,-184 2995,-184 2995,-184 1619.9346,-184 1619.9346,-184"/>
<polygon fill="#000000" stroke="#000000" points="1619.9346,-180.5001 1609.9346,-184 1619.9345,-187.5001 1619.9346,-180.5001"/>
</g>
<!-- ApproveComponent -->
<g id="node2" class="node">
<title>ApproveComponent</title>
<polygon fill="#ffffb3" stroke="#000000" points="2924.3146,-122 2793.6854,-122 2793.6854,-86 2924.3146,-86 2924.3146,-122"/>
<text text-anchor="middle" x="2859" y="-99.8" font-family="Times,serif" font-size="14.00" fill="#000000">ApproveComponent</text>
</g>
<!-- ApproveComponent&#45;&gt;AppModule -->
<g id="edge2" class="edge">
<title>ApproveComponent&#45;&gt;AppModule</title>
<path fill="none" stroke="#000000" d="M2859,-122.2479C2859,-145.0179 2859,-181 2859,-181 2859,-181 1619.8551,-181 1619.8551,-181"/>
<polygon fill="#000000" stroke="#000000" points="1619.8551,-177.5001 1609.8551,-181 1619.855,-184.5001 1619.8551,-177.5001"/>
</g>
<!-- ClientsComponent -->
<g id="node3" class="node">
<title>ClientsComponent</title>
<polygon fill="#ffffb3" stroke="#000000" points="2775.5,-122 2654.5,-122 2654.5,-86 2775.5,-86 2775.5,-122"/>
<text text-anchor="middle" x="2715" y="-99.8" font-family="Times,serif" font-size="14.00" fill="#000000">ClientsComponent</text>
</g>
<!-- ClientsComponent&#45;&gt;AppModule -->
<g id="edge3" class="edge">
<title>ClientsComponent&#45;&gt;AppModule</title>
<path fill="none" stroke="#000000" d="M2715,-122.2921C2715,-144.2057 2715,-178 2715,-178 2715,-178 1619.8407,-178 1619.8407,-178"/>
<polygon fill="#000000" stroke="#000000" points="1619.8407,-174.5001 1609.8407,-178 1619.8406,-181.5001 1619.8407,-174.5001"/>
</g>
<!-- ConfirmComponent -->
<g id="node4" class="node">
<title>ConfirmComponent</title>
<polygon fill="#ffffb3" stroke="#000000" points="2636.2716,-122 2507.7284,-122 2507.7284,-86 2636.2716,-86 2636.2716,-122"/>
<text text-anchor="middle" x="2572" y="-99.8" font-family="Times,serif" font-size="14.00" fill="#000000">ConfirmComponent</text>
</g>
<!-- ConfirmComponent&#45;&gt;AppModule -->
<g id="edge4" class="edge">
<title>ConfirmComponent&#45;&gt;AppModule</title>
<path fill="none" stroke="#000000" d="M2572,-122.0267C2572,-142.7672 2572,-174 2572,-174 2572,-174 1619.8624,-174 1619.8624,-174"/>
<polygon fill="#000000" stroke="#000000" points="1619.8624,-170.5001 1609.8624,-174 1619.8624,-177.5001 1619.8624,-170.5001"/>
</g>
<!-- ContactUsComponent -->
<g id="node5" class="node">
<title>ContactUsComponent</title>
<polygon fill="#ffffb3" stroke="#000000" points="2489.4313,-122 2348.5687,-122 2348.5687,-86 2489.4313,-86 2489.4313,-122"/>
<text text-anchor="middle" x="2419" y="-99.8" font-family="Times,serif" font-size="14.00" fill="#000000">ContactUsComponent</text>
</g>
<!-- ContactUsComponent&#45;&gt;AppModule -->
<g id="edge5" class="edge">
<title>ContactUsComponent&#45;&gt;AppModule</title>
<path fill="none" stroke="#000000" d="M2419,-122.308C2419,-142.1455 2419,-171 2419,-171 2419,-171 1619.911,-171 1619.911,-171"/>
<polygon fill="#000000" stroke="#000000" points="1619.911,-167.5001 1609.911,-171 1619.9109,-174.5001 1619.911,-167.5001"/>
</g>
<!-- DashboardComponent -->
<g id="node6" class="node">
<title>DashboardComponent</title>
<polygon fill="#ffffb3" stroke="#000000" points="2330.9734,-122 2189.0266,-122 2189.0266,-86 2330.9734,-86 2330.9734,-122"/>
<text text-anchor="middle" x="2260" y="-99.8" font-family="Times,serif" font-size="14.00" fill="#000000">DashboardComponent</text>
</g>
<!-- DashboardComponent&#45;&gt;AppModule -->
<g id="edge6" class="edge">
<title>DashboardComponent&#45;&gt;AppModule</title>
<path fill="none" stroke="#000000" d="M2260,-122.1686C2260,-141.0898 2260,-168 2260,-168 2260,-168 1619.7293,-168 1619.7293,-168"/>
<polygon fill="#000000" stroke="#000000" points="1619.7294,-164.5001 1609.7293,-168 1619.7293,-171.5001 1619.7294,-164.5001"/>
</g>
<!-- FinanceComponent -->
<g id="node7" class="node">
<title>FinanceComponent</title>
<polygon fill="#ffffb3" stroke="#000000" points="2170.6499,-122 2045.3501,-122 2045.3501,-86 2170.6499,-86 2170.6499,-122"/>
<text text-anchor="middle" x="2108" y="-99.8" font-family="Times,serif" font-size="14.00" fill="#000000">FinanceComponent</text>
</g>
<!-- FinanceComponent&#45;&gt;AppModule -->
<g id="edge7" class="edge">
<title>FinanceComponent&#45;&gt;AppModule</title>
<path fill="none" stroke="#000000" d="M2108,-122.302C2108,-140.2699 2108,-165 2108,-165 2108,-165 1619.9236,-165 1619.9236,-165"/>
<polygon fill="#000000" stroke="#000000" points="1619.9236,-161.5001 1609.9236,-165 1619.9235,-168.5001 1619.9236,-161.5001"/>
</g>
<!-- HeaderComponent -->
<g id="node8" class="node">
<title>HeaderComponent</title>
<polygon fill="#ffffb3" stroke="#000000" points="2026.7437,-122 1905.2563,-122 1905.2563,-86 2026.7437,-86 2026.7437,-122"/>
<text text-anchor="middle" x="1966" y="-99.8" font-family="Times,serif" font-size="14.00" fill="#000000">HeaderComponent</text>
</g>
<!-- HeaderComponent&#45;&gt;AppModule -->
<g id="edge8" class="edge">
<title>HeaderComponent&#45;&gt;AppModule</title>
<path fill="none" stroke="#000000" d="M1966,-122.0352C1966,-138.7344 1966,-161 1966,-161 1966,-161 1619.8407,-161 1619.8407,-161"/>
<polygon fill="#000000" stroke="#000000" points="1619.8408,-157.5001 1609.8407,-161 1619.8407,-164.5001 1619.8408,-157.5001"/>
</g>
<!-- LogsComponent -->
<g id="node9" class="node">
<title>LogsComponent</title>
<polygon fill="#ffffb3" stroke="#000000" points="1886.8301,-122 1777.1699,-122 1777.1699,-86 1886.8301,-86 1886.8301,-122"/>
<text text-anchor="middle" x="1832" y="-99.8" font-family="Times,serif" font-size="14.00" fill="#000000">LogsComponent</text>
</g>
<!-- LogsComponent&#45;&gt;AppModule -->
<g id="edge9" class="edge">
<title>LogsComponent&#45;&gt;AppModule</title>
<path fill="none" stroke="#000000" d="M1832,-122.2819C1832,-137.9478 1832,-158 1832,-158 1832,-158 1619.8316,-158 1619.8316,-158"/>
<polygon fill="#000000" stroke="#000000" points="1619.8316,-154.5001 1609.8316,-158 1619.8315,-161.5001 1619.8316,-154.5001"/>
</g>
<!-- NajmComponent -->
<g id="node10" class="node">
<title>NajmComponent</title>
<polygon fill="#ffffb3" stroke="#000000" points="1759.4356,-122 1646.5644,-122 1646.5644,-86 1759.4356,-86 1759.4356,-122"/>
<text text-anchor="middle" x="1703" y="-99.8" font-family="Times,serif" font-size="14.00" fill="#000000">NajmComponent</text>
</g>
<!-- NajmComponent&#45;&gt;AppModule -->
<g id="edge10" class="edge">
<title>NajmComponent&#45;&gt;AppModule</title>
<path fill="none" stroke="#000000" d="M1703,-122.1243C1703,-136.7832 1703,-155 1703,-155 1703,-155 1619.9748,-155 1619.9748,-155"/>
<polygon fill="#000000" stroke="#000000" points="1619.9749,-151.5001 1609.9748,-155 1619.9748,-158.5001 1619.9749,-151.5001"/>
</g>
<!-- NavbarComponent -->
<g id="node11" class="node">
<title>NavbarComponent</title>
<polygon fill="#ffffb3" stroke="#000000" points="1629.0297,-122 1506.9703,-122 1506.9703,-86 1629.0297,-86 1629.0297,-122"/>
<text text-anchor="middle" x="1568" y="-99.8" font-family="Times,serif" font-size="14.00" fill="#000000">NavbarComponent</text>
</g>
<!-- NavbarComponent&#45;&gt;AppModule -->
<g id="edge11" class="edge">
<title>NavbarComponent&#45;&gt;AppModule</title>
<path fill="none" stroke="#000000" d="M1568,-122.1061C1568,-122.1061 1568,-140.991 1568,-140.991"/>
<polygon fill="#000000" stroke="#000000" points="1564.5001,-140.9909 1568,-150.991 1571.5001,-140.991 1564.5001,-140.9909"/>
</g>
<!-- NotificationsComponent -->
<g id="node12" class="node">
<title>NotificationsComponent</title>
<polygon fill="#ffffb3" stroke="#000000" points="1489.427,-122 1334.573,-122 1334.573,-86 1489.427,-86 1489.427,-122"/>
<text text-anchor="middle" x="1412" y="-99.8" font-family="Times,serif" font-size="14.00" fill="#000000">NotificationsComponent</text>
</g>
<!-- NotificationsComponent&#45;&gt;AppModule -->
<g id="edge12" class="edge">
<title>NotificationsComponent&#45;&gt;AppModule</title>
<path fill="none" stroke="#000000" d="M1412,-122.1243C1412,-136.7832 1412,-155 1412,-155 1412,-155 1516.1949,-155 1516.1949,-155"/>
<polygon fill="#000000" stroke="#000000" points="1516.1949,-158.5001 1526.1949,-155 1516.1948,-151.5001 1516.1949,-158.5001"/>
</g>
<!-- PaymentComponent -->
<g id="node13" class="node">
<title>PaymentComponent</title>
<polygon fill="#ffffb3" stroke="#000000" points="1317.3258,-122 1186.6742,-122 1186.6742,-86 1317.3258,-86 1317.3258,-122"/>
<text text-anchor="middle" x="1252" y="-99.8" font-family="Times,serif" font-size="14.00" fill="#000000">PaymentComponent</text>
</g>
<!-- PaymentComponent&#45;&gt;AppModule -->
<g id="edge13" class="edge">
<title>PaymentComponent&#45;&gt;AppModule</title>
<path fill="none" stroke="#000000" d="M1252,-122.2819C1252,-137.9478 1252,-158 1252,-158 1252,-158 1516.0376,-158 1516.0376,-158"/>
<polygon fill="#000000" stroke="#000000" points="1516.0377,-161.5001 1526.0376,-158 1516.0376,-154.5001 1516.0377,-161.5001"/>
</g>
<!-- ProfileComponent -->
<g id="node14" class="node">
<title>ProfileComponent</title>
<polygon fill="#ffffb3" stroke="#000000" points="1168.9328,-122 1049.0672,-122 1049.0672,-86 1168.9328,-86 1168.9328,-122"/>
<text text-anchor="middle" x="1109" y="-99.8" font-family="Times,serif" font-size="14.00" fill="#000000">ProfileComponent</text>
</g>
<!-- ProfileComponent&#45;&gt;AppModule -->
<g id="edge14" class="edge">
<title>ProfileComponent&#45;&gt;AppModule</title>
<path fill="none" stroke="#000000" d="M1109,-122.0352C1109,-138.7344 1109,-161 1109,-161 1109,-161 1516.05,-161 1516.05,-161"/>
<polygon fill="#000000" stroke="#000000" points="1516.05,-164.5001 1526.05,-161 1516.05,-157.5001 1516.05,-164.5001"/>
</g>
<!-- RejectComponent -->
<g id="node15" class="node">
<title>RejectComponent</title>
<polygon fill="#ffffb3" stroke="#000000" points="1031.594,-122 914.406,-122 914.406,-86 1031.594,-86 1031.594,-122"/>
<text text-anchor="middle" x="973" y="-99.8" font-family="Times,serif" font-size="14.00" fill="#000000">RejectComponent</text>
</g>
<!-- RejectComponent&#45;&gt;AppModule -->
<g id="edge15" class="edge">
<title>RejectComponent&#45;&gt;AppModule</title>
<path fill="none" stroke="#000000" d="M973,-122.302C973,-140.2699 973,-165 973,-165 973,-165 1516.1608,-165 1516.1608,-165"/>
<polygon fill="#000000" stroke="#000000" points="1516.1608,-168.5001 1526.1608,-165 1516.1607,-161.5001 1516.1608,-168.5001"/>
</g>
<!-- ReportsComponent -->
<g id="node16" class="node">
<title>ReportsComponent</title>
<polygon fill="#ffffb3" stroke="#000000" points="896.3795,-122 771.6205,-122 771.6205,-86 896.3795,-86 896.3795,-122"/>
<text text-anchor="middle" x="834" y="-99.8" font-family="Times,serif" font-size="14.00" fill="#000000">ReportsComponent</text>
</g>
<!-- ReportsComponent&#45;&gt;AppModule -->
<g id="edge16" class="edge">
<title>ReportsComponent&#45;&gt;AppModule</title>
<path fill="none" stroke="#000000" d="M834,-122.1686C834,-141.0898 834,-168 834,-168 834,-168 1516.1677,-168 1516.1677,-168"/>
<polygon fill="#000000" stroke="#000000" points="1516.1677,-171.5001 1526.1677,-168 1516.1676,-164.5001 1516.1677,-171.5001"/>
</g>
<!-- RequestCounterComponent -->
<g id="node17" class="node">
<title>RequestCounterComponent</title>
<polygon fill="#ffffb3" stroke="#000000" points="753.5364,-122 582.4636,-122 582.4636,-86 753.5364,-86 753.5364,-122"/>
<text text-anchor="middle" x="668" y="-99.8" font-family="Times,serif" font-size="14.00" fill="#000000">RequestCounterComponent</text>
</g>
<!-- RequestCounterComponent&#45;&gt;AppModule -->
<g id="edge17" class="edge">
<title>RequestCounterComponent&#45;&gt;AppModule</title>
<path fill="none" stroke="#000000" d="M668,-122.308C668,-142.1455 668,-171 668,-171 668,-171 1516.0977,-171 1516.0977,-171"/>
<polygon fill="#000000" stroke="#000000" points="1516.0977,-174.5001 1526.0977,-171 1516.0976,-167.5001 1516.0977,-174.5001"/>
</g>
<!-- UpdateRequestComponent -->
<g id="node18" class="node">
<title>UpdateRequestComponent</title>
<polygon fill="#ffffb3" stroke="#000000" points="564.3599,-122 397.6401,-122 397.6401,-86 564.3599,-86 564.3599,-122"/>
<text text-anchor="middle" x="481" y="-99.8" font-family="Times,serif" font-size="14.00" fill="#000000">UpdateRequestComponent</text>
</g>
<!-- UpdateRequestComponent&#45;&gt;AppModule -->
<g id="edge18" class="edge">
<title>UpdateRequestComponent&#45;&gt;AppModule</title>
<path fill="none" stroke="#000000" d="M481,-122.0267C481,-142.7672 481,-174 481,-174 481,-174 1516.0544,-174 1516.0544,-174"/>
<polygon fill="#000000" stroke="#000000" points="1516.0544,-177.5001 1526.0544,-174 1516.0543,-170.5001 1516.0544,-177.5001"/>
</g>
<!-- AppComponent  -->
<g id="node23" class="node">
<title>AppComponent </title>
<polygon fill="#80b1d3" stroke="#000000" points="1622.439,-252 1513.561,-252 1513.561,-216 1622.439,-216 1622.439,-252"/>
<text text-anchor="middle" x="1568" y="-229.8" font-family="Times,serif" font-size="14.00" fill="#000000">AppComponent </text>
</g>
<!-- AppModule&#45;&gt;AppComponent  -->
<g id="edge22" class="edge">
<title>AppModule&#45;&gt;AppComponent </title>
<path fill="none" stroke="#000000" stroke-dasharray="1,5" d="M1568,-187.1061C1568,-187.1061 1568,-205.991 1568,-205.991"/>
<polygon fill="#000000" stroke="#000000" points="1564.5001,-205.9909 1568,-215.991 1571.5001,-205.991 1564.5001,-205.9909"/>
</g>
<!-- AppRoutingModule -->
<g id="node20" class="node">
<title>AppRoutingModule</title>
<polygon fill="#8dd3c7" stroke="#000000" points="374.2744,-122 371.2744,-126 350.2744,-126 347.2744,-122 245.7256,-122 245.7256,-86 374.2744,-86 374.2744,-122"/>
<text text-anchor="middle" x="310" y="-99.8" font-family="Times,serif" font-size="14.00" fill="#000000">AppRoutingModule</text>
</g>
<!-- AppRoutingModule&#45;&gt;AppModule -->
<g id="edge19" class="edge">
<title>AppRoutingModule&#45;&gt;AppModule</title>
<path fill="none" stroke="#000000" d="M310,-122.2921C310,-144.2057 310,-178 310,-178 310,-178 1516.1441,-178 1516.1441,-178"/>
<polygon fill="#000000" stroke="#000000" points="1516.1441,-181.5001 1526.1441,-178 1516.1441,-174.5001 1516.1441,-181.5001"/>
</g>
<!-- CoreModule -->
<g id="node21" class="node">
<title>CoreModule</title>
<polygon fill="#8dd3c7" stroke="#000000" points="227.2619,-122 224.2619,-126 203.2619,-126 200.2619,-122 140.7381,-122 140.7381,-86 227.2619,-86 227.2619,-122"/>
<text text-anchor="middle" x="184" y="-99.8" font-family="Times,serif" font-size="14.00" fill="#000000">CoreModule</text>
</g>
<!-- CoreModule&#45;&gt;AppModule -->
<g id="edge20" class="edge">
<title>CoreModule&#45;&gt;AppModule</title>
<path fill="none" stroke="#000000" d="M184,-122.2479C184,-145.0179 184,-181 184,-181 184,-181 1516.2026,-181 1516.2026,-181"/>
<polygon fill="#000000" stroke="#000000" points="1516.2026,-184.5001 1526.2026,-181 1516.2025,-177.5001 1516.2026,-184.5001"/>
</g>
<!-- SharedModule -->
<g id="node22" class="node">
<title>SharedModule</title>
<polygon fill="#8dd3c7" stroke="#000000" points="122.4231,-122 119.4231,-126 98.4231,-126 95.4231,-122 23.5769,-122 23.5769,-86 122.4231,-86 122.4231,-122"/>
<text text-anchor="middle" x="73" y="-99.8" font-family="Times,serif" font-size="14.00" fill="#000000">SharedModule</text>
</g>
<!-- SharedModule&#45;&gt;AppModule -->
<g id="edge21" class="edge">
<title>SharedModule&#45;&gt;AppModule</title>
<path fill="none" stroke="#000000" d="M73,-122.1532C73,-145.7566 73,-184 73,-184 73,-184 1516.0611,-184 1516.0611,-184"/>
<polygon fill="#000000" stroke="#000000" points="1516.0612,-187.5001 1526.0611,-184 1516.0611,-180.5001 1516.0612,-187.5001"/>
</g>
</g>
</svg>
